<svg xmlns="http://www.w3.org/2000/svg" aria-hidden="true" style="-ms-transform:rotate(360deg);-webkit-transform:rotate(360deg)" viewBox="0 0 32 32" transform="rotate(360)"><path d="M4 16c-2-3-2-5-1-7s4-3 9-2v1c-4-1-7 0-8 2v6zm19-9c3 1 5 1 5 3 2 2 1 4-2 7v1h1c3-3 3-7 2-9l-6-2zm-2 21h-1c-1 2-2 3-4 3s-4-2-6-6v1c1 4 3 6 6 6 2 0 4-1 5-4zm10-4c0 2-2 3-3 2-4 2-10 1-16-2l-6-5v-1l7 5c5 3 11 4 14 2a2 2 0 011-3 2 2 0 013 2zM5 24a2 2 0 11-3-1c0-4 4-9 10-13l8-3v1c-2 0-5 1-7 3-6 3-10 8-10 11l2 2zm9-22c0-3 4-3 4 0 3 2 6 8 6 15l-1 8h-1l1-8c0-7-2-12-5-14-1 2-4 1-4-1zm2 13a1 1 0 000 3c2 0 2-3 0-3z" fill="#00d8ff"/></svg>