<svg xmlns="http://www.w3.org/2000/svg" aria-hidden="true" style="-ms-transform:rotate(360deg);-webkit-transform:rotate(360deg)" viewBox="0 0 256 288" transform="rotate(360)">
  <path d="M153 33l59 34a26 26 0 016-4 26 26 0 0125 44 26 26 0 01-7 3v68a26 26 0 017 3c12 7 17 22 10 35-8 12-23 16-36 9a25 25 0 01-6-5l-59 34a26 26 0 012 8 26 26 0 11-51-7l-59-34a26 26 0 01-5 4 26 26 0 01-26-44 26 26 0 017-3v-68a26 26 0 01-7-3 26 26 0 0125-44 26 26 0 016 4l59-34a26 26 0 01-1-7 26 26 0 1151 7zm-7 10l60 35a26 26 0 002 20c4 6 10 10 16 12v68h-1L146 44v-1zm-36 1L33 178a26 26 0 00-1 0v-68c6-2 12-6 16-12a26 26 0 002-20l60-35v1zm25 6l78 134a25 25 0 00-5 6 26 26 0 00-3 7H51a26 26 0 00-3-7 26 26 0 00-5-6l78-134a26 26 0 007 1l7-1zm12 195l59-34a26 26 0 01-1-2H51l-1 1 60 34a26 26 0 0118-8 26 26 0 0119 9z" fill="#E535AB" fill-rule="evenodd"/>
</svg>