<svg xmlns="http://www.w3.org/2000/svg" aria-hidden="true" style="-ms-transform:rotate(360deg);-webkit-transform:rotate(360deg)" viewBox="0 0 32 32" transform="rotate(360)"><defs><linearGradient id="a" x1="-645.7" y1="839.2" x2="-654.6" y2="839.3" gradientTransform="matrix(-.977 -.323 -.29 .877 -376 -928)" gradientUnits="userSpaceOnUse"><stop offset=".2" stop-color="#999875"/><stop offset=".6" stop-color="#9b9977"/><stop offset=".7" stop-color="#a09f7e"/><stop offset=".8" stop-color="#a9a889"/><stop offset=".8" stop-color="#b7b69a"/><stop offset=".9" stop-color="#c9c7b0"/><stop offset=".9" stop-color="#deddcb"/><stop offset="1" stop-color="#f8f6eb"/><stop offset="1" stop-color="#fbf9ef"/></linearGradient><linearGradient id="b" x1="-644.3" y1="823.4" x2="-657" y2="845.5" gradientTransform="matrix(-.977 -.323 -.29 .877 -376 -928)" gradientUnits="userSpaceOnUse"><stop offset="0" stop-color="#48a547"/><stop offset="1" stop-color="#3f9143"/></linearGradient><linearGradient id="c" x1="-643.4" y1="839.5" x2="-652.4" y2="833.4" gradientTransform="matrix(-.977 -.323 -.29 .877 -376 -928)" gradientUnits="userSpaceOnUse"><stop offset="0" stop-color="#41a247"/><stop offset=".4" stop-color="#4ba74b"/><stop offset="1" stop-color="#67b554"/><stop offset="1" stop-color="#69b655"/></linearGradient></defs><path d="M17 30h-1s0-4-1-4c-1-1 0-45 3 0a3 3 0 00-1 1 14 14 0 000 3z" fill="url(#a)"/><path d="M17 26a13 13 0 005-13c-1-6-5-9-5-9a10 10 0 01-1-2v18s0 6 1 6z" fill="url(#b)"/><path d="M15 27s-6-5-5-12a16 16 0 015-12 2 2 0 001-1v14l-1 11z" fill="url(#c)"/></svg>