<svg xmlns="http://www.w3.org/2000/svg" aria-hidden="true" style="-ms-transform:rotate(360deg);-webkit-transform:rotate(360deg)" viewBox="0 0 32 32" transform="rotate(360)">
  <circle cx="16" cy="16" r="2.5" fill="#00d8ff"/>
  <path d="M16 22a28 28 0 01-9-1 11 11 0 01-4-2 4 4 0 01-1-3c0-2 2-3 5-4a29 29 0 019-2 29 29 0 019 2 11 11 0 014 1 3 3 0 011 3c0 2-2 3-5 5a29 29 0 01-9 1zm0-11a28 28 0 00-9 2l-4 3 5 3a27 27 0 008 2 28 28 0 008-2l5-3a2 2 0 00-1-2 10 10 0 00-3-1 27 27 0 00-9-2z" fill="#00d8ff"/>
  <path d="M10 28a3 3 0 01-1 0c-1-1-2-3-1-6a29 29 0 013-9 29 29 0 016-7 11 11 0 013-2 3 3 0 013 0c1 1 2 3 1 7a29 29 0 01-3 8 28 28 0 01-6 7 11 11 0 01-3 2 5 5 0 01-2 0zm2-14a28 28 0 00-3 8c-1 3 0 5 1 5l5-2a27 27 0 005-7 28 28 0 003-8c1-3 0-5-1-5a2 2 0 00-1 0 10 10 0 00-3 2 27 27 0 00-6 7z" fill="#00d8ff"/>
  <path d="M22 28c-2 0-3 0-5-2a29 29 0 01-6-7 29 29 0 01-3-9 11 11 0 010-4 3 3 0 011-2c1-1 4 0 7 2a29 29 0 015 7 28 28 0 013 8 11 11 0 010 5 4 4 0 01-1 2 3 3 0 01-1 0zM12 18a28 28 0 006 7l4 2c1 0 2-2 1-5a27 27 0 00-3-8 28 28 0 00-5-7l-5-2a2 2 0 00-1 2 10 10 0 000 3 27 27 0 003 8z" fill="#00d8ff"/>
</svg>