<svg xmlns="http://www.w3.org/2000/svg" aria-hidden="true" style="-ms-transform:rotate(360deg);-webkit-transform:rotate(360deg)" viewBox="0 0 256 220" transform="rotate(360)"><path d="M246 169l-100 44c-15 8-23 8-35 2L10 173c-6-4-10-6-10-9v-26s98-21 114-27 21-6 35-1c13 5 94 20 107 24v26c0 3-3 5-10 9" fill="#912626"/><path d="M246 143l-100 44c-15 8-23 8-35 2L10 147c-13-7-14-11 0-16l104-41c16-5 21-6 35-1l97 38c13 5 14 9 0 16" fill="#C6302B"/><path d="M246 127l-100 44c-15 8-23 8-35 2L10 131c-6-4-10-6-10-9V96s98-21 114-27c16-5 21-6 35-1 13 5 94 20 107 25v25c0 3-3 5-10 9" fill="#912626"/><path d="M246 101l-100 44c-15 8-23 8-35 3L10 105c-13-7-14-11 0-16l104-41c16-5 21-5 35 0l97 37c13 5 14 9 0 16" fill="#C6302B"/><path d="M246 84l-100 44c-15 8-23 8-35 2L10 87c-6-3-10-6-10-8V53s98-22 114-27c16-6 21-6 35-1 13 5 94 19 107 24v26c0 2-3 5-10 9" fill="#912626"/><path d="M246 58l-100 44c-15 8-23 8-35 2L10 61c-13-6-13-10 0-16L114 5c16-6 21-6 35-1l97 38c13 5 14 9 0 16" fill="#C6302B"/><path d="M159 33l-22 2-5 12-8-13-25-3 19-6-6-11 18 7 17-5-5 10 17 7M131 90L90 73l59-9-18 26M74 39c17 0 32 6 32 13 0 6-15 12-32 12s-31-6-31-12c0-7 14-13 31-13" fill="#FFF"/><path d="M185 36l35 14-35 14V36" fill="#621B1C"/><path d="M147 51l38-15v28l-3 1-35-14" fill="#9A2928"/></svg>