<svg xmlns="http://www.w3.org/2000/svg" aria-hidden="true" style="-ms-transform:rotate(360deg);-webkit-transform:rotate(360deg)" viewBox="0 0 32 32" transform="rotate(360)"><path d="M24 8a4 4 0 012 2 6 6 0 011 1l-3 1a2 2 0 00-2-1l-1 1a1 1 0 000 1l2 1 4 3a5 5 0 011 5 5 5 0 01-4 2 11 11 0 01-3 0 7 7 0 01-4-1 6 6 0 01-1-2 3 3 0 011 0l1-1h1a5 5 0 002 1 3 3 0 003 0 2 2 0 000-2l-2-1a9 9 0 01-3-2 5 5 0 01-1-2 7 7 0 01-1-2 4 4 0 014-4 9 9 0 013 0zm-9 2v1h-4v13H8V11H3v-1a14 14 0 010-2h12z" fill="#007acc"/></svg>